<?xml version="1.0" encoding="UTF-8" standalone="no"?><svg xmlns="http://www.w3.org/2000/svg" xmlns:xlink="http://www.w3.org/1999/xlink" contentScriptType="application/ecmascript" contentStyleType="text/css" height="507px" preserveAspectRatio="none" style="width:907px;height:507px;background:#FFFFFF;" version="1.1" viewBox="0 0 907 507" width="907px" zoomAndPan="magnify"><defs><filter height="300%" id="f13fw6pbamgv62" width="300%" x="-1" y="-1"><feGaussianBlur result="blurOut" stdDeviation="2.0"/><feColorMatrix in="blurOut" result="blurOut2" type="matrix" values="0 0 0 0 0 0 0 0 0 0 0 0 0 0 0 0 0 0 .4 0"/><feOffset dx="4.0" dy="4.0" in="blurOut2" result="blurOut3"/><feBlend in="SourceGraphic" in2="blurOut3" mode="normal"/></filter></defs><g><ellipse cx="621.2516" cy="157.4503" fill="#FEFECE" filter="url(#f13fw6pbamgv62)" rx="82.7516" ry="18.9503" style="stroke:#A80036;stroke-width:1.5;"/><text fill="#000000" font-family="sans-serif" font-size="14" lengthAdjust="spacing" textLength="121" x="560.7516" y="161.1788">Gérer les chantiers</text><ellipse cx="470.4775" cy="277.2955" fill="#FEFECE" filter="url(#f13fw6pbamgv62)" rx="79.4775" ry="18.2955" style="stroke:#A80036;stroke-width:1.5;"/><text fill="#000000" font-family="sans-serif" font-size="14" lengthAdjust="spacing" textLength="113" x="412.756" y="281.3709">Gérer les artisans</text><ellipse cx="313.605" cy="157.721" fill="#FEFECE" filter="url(#f13fw6pbamgv62)" rx="89.105" ry="20.221" style="stroke:#A80036;stroke-width:1.5;"/><text fill="#000000" font-family="sans-serif" font-size="14" lengthAdjust="spacing" textLength="136" x="245.605" y="161.4495">Gérer les affectations</text><ellipse cx="817.5069" cy="157.4014" fill="#FEFECE" filter="url(#f13fw6pbamgv62)" rx="77.5069" ry="17.9014" style="stroke:#A80036;stroke-width:1.5;"/><text fill="#000000" font-family="sans-serif" font-size="14" lengthAdjust="spacing" textLength="108" x="761.3567" y="161.716">Obtenir les dates</text><ellipse cx="739.5069" cy="277.4014" fill="#FEFECE" filter="url(#f13fw6pbamgv62)" rx="77.5069" ry="17.9014" style="stroke:#A80036;stroke-width:1.5;"/><text fill="#000000" font-family="sans-serif" font-size="14" lengthAdjust="spacing" textLength="108" x="683.3567" y="281.716">Obtenir l'adresse</text><ellipse cx="405.5069" cy="373.9014" fill="#FEFECE" filter="url(#f13fw6pbamgv62)" rx="77.5069" ry="17.9014" style="stroke:#A80036;stroke-width:1.5;"/><text fill="#000000" font-family="sans-serif" font-size="14" lengthAdjust="spacing" textLength="108" x="349.3567" y="378.216">Obtenir le salaire</text><ellipse cx="470.337" cy="473.9674" fill="#FEFECE" filter="url(#f13fw6pbamgv62)" rx="97.837" ry="21.9674" style="stroke:#A80036;stroke-width:1.5;"/><text fill="#000000" font-family="sans-serif" font-size="14" lengthAdjust="spacing" textLength="156" x="392.337" y="477.6959">Obtenir les coordonnées</text><ellipse cx="97.2628" cy="157.6526" fill="#FEFECE" filter="url(#f13fw6pbamgv62)" rx="91.2628" ry="20.6526" style="stroke:#A80036;stroke-width:1.5;"/><text fill="#000000" font-family="sans-serif" font-size="14" lengthAdjust="spacing" textLength="141" x="26.7628" y="161.3811">Obtenir le nb d'heures</text><ellipse cx="188.5069" cy="277.4014" fill="#FEFECE" filter="url(#f13fw6pbamgv62)" rx="77.5069" ry="17.9014" style="stroke:#A80036;stroke-width:1.5;"/><text fill="#000000" font-family="sans-serif" font-size="14" lengthAdjust="spacing" textLength="108" x="132.3567" y="281.716">Dates de mission</text><ellipse cx="470.6359" cy="31.1272" fill="#FEFECE" filter="url(#f13fw6pbamgv62)" rx="113.6359" ry="25.1272" style="stroke:#A80036;stroke-width:1.5;"/><text fill="#000000" font-family="sans-serif" font-size="14" lengthAdjust="spacing" textLength="191" x="375.1359" y="34.8557">Calculer salaire selon chantier</text><!--MD5=[4206b647878100e6066f92523e03a5d6]
entity Entreprise--><ellipse cx="470.5" cy="125.5" fill="#FEFECE" filter="url(#f13fw6pbamgv62)" rx="8" ry="8" style="stroke:#A80036;stroke-width:1.5;"/><path d="M470.5,133.5 L470.5,160.5 M457.5,141.5 L483.5,141.5 M470.5,160.5 L457.5,175.5 M470.5,160.5 L483.5,175.5 " fill="none" filter="url(#f13fw6pbamgv62)" style="stroke:#A80036;stroke-width:1.5;"/><text fill="#000000" font-family="sans-serif" font-size="14" lengthAdjust="spacing" textLength="65" x="438" y="195.5332">Entreprise</text><!--MD5=[03840ed4db198a91b9c954020fbd1c2a]
link Entreprise to g1--><path d="M503.24,157.5 C513.2,157.5 523.17,157.5 533.13,157.5 " fill="none" id="Entreprise-to-g1" style="stroke:#A80036;stroke-width:1.0;"/><polygon fill="#A80036" points="538.35,157.5,529.35,153.5,533.35,157.5,529.35,161.5,538.35,157.5" style="stroke:#A80036;stroke-width:1.0;"/><!--MD5=[49381f4e0f953af25bac8ffff3e5afca]
link Entreprise to g2--><path d="M470.5,199.11 C470.5,217.44 470.5,238.4 470.5,253.88 " fill="none" id="Entreprise-to-g2" style="stroke:#A80036;stroke-width:1.0;"/><polygon fill="#A80036" points="470.5,258.9,474.5,249.9,470.5,253.9,466.5,249.9,470.5,258.9" style="stroke:#A80036;stroke-width:1.0;"/><!--MD5=[c65c6704a0911e2478f60e102abf51f3]
reverse link g3 to Entreprise--><path d="M407.96,157.5 C417.95,157.5 427.95,157.5 437.94,157.5 " fill="none" id="g3-backto-Entreprise" style="stroke:#A80036;stroke-width:1.0;"/><polygon fill="#A80036" points="402.73,157.5,411.73,161.5,407.73,157.5,411.73,153.5,402.73,157.5" style="stroke:#A80036;stroke-width:1.0;"/><!--MD5=[48396b6abaa2dfcd37c64567ed8c7455]
reverse link c to Entreprise--><path d="M470.5,61.35 C470.5,77.63 470.5,98.12 470.5,115.91 " fill="none" id="c-backto-Entreprise" style="stroke:#A80036;stroke-width:1.0;"/><polygon fill="#A80036" points="470.5,56,466.5,65,470.5,61,474.5,65,470.5,56" style="stroke:#A80036;stroke-width:1.0;"/><!--MD5=[effa5eacd4d204301b0389a2d3b9c034]
link g1 to o1--><path d="M704.57,157.5 C714.59,157.5 724.61,157.5 734.62,157.5 " fill="none" id="g1-to-o1" style="stroke:#A80036;stroke-width:1.0;"/><polygon fill="#A80036" points="739.86,157.5,730.86,153.5,734.86,157.5,730.86,161.5,739.86,157.5" style="stroke:#A80036;stroke-width:1.0;"/><!--MD5=[ec11f5cb947a613a6290f150ebb74a65]
link g1 to o2--><path d="M639.17,176.17 C660.56,197.56 696.52,233.52 719.08,256.08 " fill="none" id="g1-to-o2" style="stroke:#A80036;stroke-width:1.0;"/><polygon fill="#A80036" points="722.86,259.86,719.3245,250.6676,719.3245,256.3245,713.6676,256.3245,722.86,259.86" style="stroke:#A80036;stroke-width:1.0;"/><!--MD5=[44b4bc9fcc18533232bc301199d8a096]
link g2 to o3--><path d="M458.58,295.83 C447.7,311.65 431.59,335.06 419.98,351.95 " fill="none" id="g2-to-o3" style="stroke:#A80036;stroke-width:1.0;"/><polygon fill="#A80036" points="417.13,356.1,425.537,350.9695,419.9723,351.9865,418.9554,346.4218,417.13,356.1" style="stroke:#A80036;stroke-width:1.0;"/><!--MD5=[4f723d296e58c01612030c7822e6579c]
link g2 to o4--><path d="M479.48,296.11 C486.78,311.47 496.5,334.58 500.5,356 C506.43,387.75 494.36,423.66 483.81,447.22 " fill="none" id="g2-to-o4" style="stroke:#A80036;stroke-width:1.0;"/><polygon fill="#A80036" points="481.59,452.05,488.9804,445.5398,483.6762,447.506,481.71,442.2019,481.59,452.05" style="stroke:#A80036;stroke-width:1.0;"/><!--MD5=[71c1b16525e0c4b250dfd6237c35a1a8]
reverse link o5 to g3--><path d="M194.24,157.5 C204.18,157.5 214.11,157.5 224.05,157.5 " fill="none" id="o5-backto-g3" style="stroke:#A80036;stroke-width:1.0;"/><polygon fill="#A80036" points="189.05,157.5,198.05,161.5,194.05,157.5,198.05,153.5,189.05,157.5" style="stroke:#A80036;stroke-width:1.0;"/><!--MD5=[f92cce2b4d66110bc8d2ceacc7971073]
link g3 to o6--><path d="M293.69,177.2 C270.82,198.79 233.34,234.17 209.84,256.35 " fill="none" id="g3-to-o6" style="stroke:#A80036;stroke-width:1.0;"/><polygon fill="#A80036" points="206.19,259.8,215.4853,256.5445,209.831,256.3732,210.0023,250.7189,206.19,259.8" style="stroke:#A80036;stroke-width:1.0;"/><!--MD5=[20a318d823c62e0883af14d5e9b73270]
link g1 to g2--><!--MD5=[9e5c669479f3c1c7f0de4a21ce4cf69e]
link g2 to g3--><!--MD5=[9ad6417c8edb5c87f8a26fa2c4cf4771]
link o1 to o2--><!--MD5=[ca23d40ed75ad3e9ec0e9aac8c9c3c81]
link o3 to o4--><!--MD5=[24a285f0e3367c65721210c27218cfc5]
link o6 to o5--><!--MD5=[a1684ba69b7033378b12dde97f3d17a2]
@startuml diagramme UC

usecase g1 as "Gérer les chantiers"
usecase g2 as "Gérer les artisans"
usecase g3 as "Gérer les affectations"
usecase o1 as "Obtenir les dates"
usecase o2 as "Obtenir l'adresse"
usecase o3 as "Obtenir le salaire"
usecase o4 as "Obtenir les coordonnées"
usecase o5 as "Obtenir le nb d'heures"
usecase o6 as "Dates de mission"
usecase c as "Calculer salaire selon chantier"



actor Entreprise 


Entreprise -right-> g1
Entreprise -down-> g2
Entreprise -left-> g3
Entreprise -up-> c

g1 -right-> o1
g1 -right-> o2
g2 -down-> o3
g2 -down-> o4
g3 -left-> o5
g3 -down-> o6


g1 -[hidden]-> g2
g2 -[hidden]-> g3
o1 -[hidden]-> o2
o3 -[hidden]-> o4
o6 -[hidden]-> o5


@enduml

PlantUML version 1.2022.0(Tue Jan 11 17:16:42 CET 2022)
(GPL source distribution)
Java Runtime: Java(TM) SE Runtime Environment
JVM: Java HotSpot(TM) 64-Bit Server VM
Default Encoding: Cp1252
Language: fr
Country: FR
--></g></svg>